<svg xmlns="http://www.w3.org/2000/svg" xmlns:xlink="http://www.w3.org/1999/xlink" preserveAspectRatio="xMidYMid" width="22" height="22" viewBox="0 0 22 22">
  <defs>
    <style>
      .cls-1 {
        fill: #fff;
        fill-rule: evenodd;
      }
    </style>
  </defs>
  <path d="M21.134,-0.000 L1.233,-0.000 C0.551,-0.000 -0.000,0.542 -0.000,1.213 L-0.000,20.786 C-0.000,21.457 0.551,22.000 1.233,22.000 L11.948,22.000 L11.948,13.470 L9.021,13.470 L9.021,10.161 L11.948,10.161 L11.948,7.711 C11.948,4.869 13.712,3.330 16.289,3.330 C17.524,3.330 18.585,3.412 18.895,3.453 L18.895,6.424 L17.107,6.424 C15.705,6.424 15.443,7.078 15.443,8.040 L15.443,10.161 L18.777,10.161 L18.341,13.470 L15.443,13.470 L15.443,22.000 L21.134,22.000 C21.816,22.000 22.368,21.457 22.368,20.786 L22.368,1.213 C22.368,0.542 21.816,-0.000 21.134,-0.000 Z" class="cls-1"/>
</svg>
