<svg xmlns="http://www.w3.org/2000/svg" xmlns:xlink="http://www.w3.org/1999/xlink" preserveAspectRatio="xMidYMid" width="26" height="22" viewBox="0 0 26 22">
  <defs>
    <style>
      .cls-1 {
        fill: #fff;
        fill-rule: evenodd;
      }
    </style>
  </defs>
  <path d="M7.906,22.000 C17.867,22.000 23.313,13.537 23.313,6.198 C23.313,5.957 23.309,5.718 23.298,5.480 C24.355,4.696 25.274,3.718 26.000,2.604 C25.029,3.046 23.985,3.344 22.890,3.478 C24.008,2.791 24.866,1.703 25.271,0.406 C24.224,1.043 23.066,1.505 21.832,1.754 C20.844,0.675 19.437,-0.000 17.880,-0.000 C14.889,-0.000 12.463,2.487 12.463,5.553 C12.463,5.989 12.511,6.413 12.604,6.819 C8.104,6.587 4.112,4.377 1.442,1.017 C0.976,1.837 0.709,2.791 0.709,3.808 C0.709,5.735 1.665,7.436 3.118,8.431 C2.230,8.403 1.395,8.153 0.666,7.736 C0.665,7.760 0.665,7.783 0.665,7.807 C0.665,10.497 2.532,12.743 5.009,13.252 C4.554,13.379 4.076,13.447 3.581,13.447 C3.233,13.447 2.893,13.412 2.563,13.347 C3.253,15.554 5.252,17.159 7.623,17.205 C5.769,18.694 3.434,19.582 0.897,19.582 C0.459,19.582 0.029,19.557 -0.395,19.505 C2.001,21.080 4.847,22.000 7.906,22.000 " class="cls-1"/>
</svg>
