<svg width="18" height="18" viewBox="0 0 18 18" version="1.1" xmlns="http://www.w3.org/2000/svg" xmlns:xlink="http://www.w3.org/1999/xlink">
<title>noun_674151_cc</title>
<desc>Created using Figma</desc>
<g id="Canvas" transform="translate(-12748 -8429)">
<g id="noun_674151_cc">
<g id="Group">
<g id="Group">
<g id="Vector">
<use xlink:href="#path0_fill" transform="matrix(0.7071 -0.7071 0.7071 0.7071 12754.4 8439.93)"/>
</g>
</g>
<g id="Group">
<g id="Vector">
<use xlink:href="#path1_fill" transform="translate(12759.2 8429)"/>
</g>
</g>
<g id="Group">
<g id="Vector">
<use xlink:href="#path2_fill" transform="translate(12748 8430.8)"/>
</g>
</g>
</g>
</g>
</g>
<defs>
<path id="path0_fill" d="M 15.264 0L 0 0L 0 0.888L 15.264 0.888L 15.264 0Z"/>
<path id="path1_fill" d="M 6.768 6.744L 5.856 6.744L 5.856 0.912L 3.66211e-07 0.912L 3.66211e-07 9.15527e-08L 6.768 9.15527e-08L 6.768 6.744Z"/>
<path id="path2_fill" d="M 16.2 16.2L 9.15527e-08 16.2L 9.15527e-08 9.15527e-08L 8.088 9.15527e-08L 8.088 0.912L 0.888 0.912L 0.888 15.312L 15.288 15.312L 15.288 8.112L 16.2 8.112L 16.2 16.2Z"/>
</defs>
</svg>
